<?xml version="1.0" encoding="iso-8859-1" standalone="no"?> 
<?xml-stylesheet href="midtermS21sol.css" type="text/css"?> 
<svg xmlns="http://www.w3.org/2000/svg" xmlns:xlink="http://www.w3.org/1999/xlink" width="299.15378pt" height="145.18521pt" viewBox="-7.31317 -1.95183 299.15378 145.18521 "> 
<g transform="translate(0, 143.23338 ) scale(1,-1) translate(0,1.95183 )"> 
      <g stroke="#000" fill="#000">
 <g stroke-width="0.4">
 <g stroke="#ccc" fill="#ccc">
 <g stroke-opacity="1">
 <g fill-opacity="1">
 <path d=" M 0.0 71.13185 M 7.11317 71.13185 C 7.11317 75.0604 3.92854 78.24503 0.0 78.24503 C -3.92854 78.24503 -7.11317 75.0604 -7.11317 71.13185 C -7.11317 67.20331 -3.92854 64.01868 0.0 64.01868 C 3.92854 64.01868 7.11317 67.20331 7.11317 71.13185 Z M 0.0 71.13185  " stroke="none"/>
 </g>
 </g>
 </g>
 <path d=" M 0.0 71.13185  " fill="none"/>
 <g transform="translate(-2.93747,68.54852)">
 <g fill="#000">
 <text style="stroke:none" transform="scale(1,-1) translate(2.93747,0)" text-anchor="middle"  font-size="12"> 
<g fill="#000">
 <g stroke="none"> a</g> </g>
 </text> 
</g>
 </g>
 <path d=" M 0.0 71.13185 M 7.11317 71.13185 C 7.11317 75.0604 3.92854 78.24503 0.0 78.24503 C -3.92854 78.24503 -7.11317 75.0604 -7.11317 71.13185 C -7.11317 67.20331 -3.92854 64.01868 0.0 64.01868 C 3.92854 64.01868 7.11317 67.20331 7.11317 71.13185 Z M 0.0 71.13185  " fill="none"/>
 <g stroke="#ccc" fill="#ccc">
 <g stroke-opacity="1">
 <g fill-opacity="1">
 <path d=" M 177.82964 71.13185 M 184.94281 71.13185 C 184.94281 75.0604 181.75818 78.24503 177.82964 78.24503 C 173.9011 78.24503 170.71646 75.0604 170.71646 71.13185 C 170.71646 67.20331 173.9011 64.01868 177.82964 64.01868 C 181.75818 64.01868 184.94281 67.20331 184.94281 71.13185 Z M 177.82964 71.13185  " stroke="none"/>
 </g>
 </g>
 </g>
 <path d=" M 177.82964 71.13185  " fill="none"/>
 <g transform="translate(174.56578,66.9652)">
 <g fill="#000">
 <text style="stroke:none" transform="scale(1,-1) translate(3.26385,0)" text-anchor="middle"  font-size="12"> 
<g fill="#000">
 <g stroke="none"> b</g> </g>
 </text> 
</g>
 </g>
 <path d=" M 177.82964 71.13185 M 184.94281 71.13185 C 184.94281 75.0604 181.75818 78.24503 177.82964 78.24503 C 173.9011 78.24503 170.71646 75.0604 170.71646 71.13185 C 170.71646 67.20331 173.9011 64.01868 177.82964 64.01868 C 181.75818 64.01868 184.94281 67.20331 184.94281 71.13185 Z M 177.82964 71.13185  " fill="none"/>
 <g stroke="#ccc" fill="#ccc">
 <g stroke-opacity="1">
 <g fill-opacity="1">
 <path d=" M 49.7923 135.15053 M 56.90547 135.15053 C 56.90547 139.07907 53.72084 142.2637 49.7923 142.2637 C 45.86375 142.2637 42.67912 139.07907 42.67912 135.15053 C 42.67912 131.22198 45.86375 128.03735 49.7923 128.03735 C 53.72084 128.03735 56.90547 131.22198 56.90547 135.15053 Z M 49.7923 135.15053  " stroke="none"/>
 </g>
 </g>
 </g>
 <path d=" M 49.7923 135.15053  " fill="none"/>
 <g transform="translate(47.18121,132.5672)">
 <g fill="#000">
 <text style="stroke:none" transform="scale(1,-1) translate(2.61108,0)" text-anchor="middle"  font-size="12"> 
<g fill="#000">
 <g stroke="none"> c </g> </g>
 </text> 
</g>
 </g>
 <path d=" M 49.7923 135.15053 M 56.90547 135.15053 C 56.90547 139.07907 53.72084 142.2637 49.7923 142.2637 C 45.86375 142.2637 42.67912 139.07907 42.67912 135.15053 C 42.67912 131.22198 45.86375 128.03735 49.7923 128.03735 C 53.72084 128.03735 56.90547 131.22198 56.90547 135.15053 Z M 49.7923 135.15053  " fill="none"/>
 <g stroke="#ccc" fill="#ccc">
 <g stroke-opacity="1">
 <g fill-opacity="1">
 <path d=" M 49.7923 7.11317 M 56.90547 7.11317 C 56.90547 11.04172 53.72084 14.22635 49.7923 14.22635 C 45.86375 14.22635 42.67912 11.04172 42.67912 7.11317 C 42.67912 3.18463 45.86375 0.0 49.7923 0.0 C 53.72084 0.0 56.90547 3.18463 56.90547 7.11317 Z M 49.7923 7.11317  " stroke="none"/>
 </g>
 </g>
 </g>
 <path d=" M 49.7923 7.11317  " fill="none"/>
 <g transform="translate(46.52844,2.94652)">
 <g fill="#000">
 <text style="stroke:none" transform="scale(1,-1) translate(3.26385,0)" text-anchor="middle"  font-size="12"> 
<g fill="#000">
 <g stroke="none"> d</g> </g>
 </text> 
</g>
 </g>
 <path d=" M 49.7923 7.11317 M 56.90547 7.11317 C 56.90547 11.04172 53.72084 14.22635 49.7923 14.22635 C 45.86375 14.22635 42.67912 11.04172 42.67912 7.11317 C 42.67912 3.18463 45.86375 0.0 49.7923 0.0 C 53.72084 0.0 56.90547 3.18463 56.90547 7.11317 Z M 49.7923 7.11317  " fill="none"/>
 <g stroke="#ccc" fill="#ccc">
 <g stroke-opacity="1">
 <g fill-opacity="1">
 <path d=" M 284.52744 71.13185 M 291.64061 71.13185 C 291.64061 75.0604 288.45598 78.24503 284.52744 78.24503 C 280.59889 78.24503 277.41426 75.0604 277.41426 71.13185 C 277.41426 67.20331 280.59889 64.01868 284.52744 64.01868 C 288.45598 64.01868 291.64061 67.20331 291.64061 71.13185 Z M 284.52744 71.13185  " stroke="none"/>
 </g>
 </g>
 </g>
 <path d=" M 284.52744 71.13185  " fill="none"/>
 <g transform="translate(282.73232,66.9652)">
 <g fill="#000">
 <text style="stroke:none" transform="scale(1,-1) translate(1.79512,0)" text-anchor="middle"  font-size="12"> 
<g fill="#000">
 <g stroke="none"> f </g> </g>
 </text> 
</g>
 </g>
 <path d=" M 284.52744 71.13185 M 291.64061 71.13185 C 291.64061 75.0604 288.45598 78.24503 284.52744 78.24503 C 280.59889 78.24503 277.41426 75.0604 277.41426 71.13185 C 277.41426 67.20331 280.59889 64.01868 284.52744 64.01868 C 288.45598 64.01868 291.64061 67.20331 291.64061 71.13185 Z M 284.52744 71.13185  " fill="none"/>
 <g stroke="#ccc" fill="#ccc">
 <g stroke-opacity="1">
 <g fill-opacity="1">
 <path d=" M 113.81097 113.81097 M 120.92415 113.81097 C 120.92415 117.73952 117.73952 120.92415 113.81097 120.92415 C 109.88243 120.92415 106.6978 117.73952 106.6978 113.81097 C 106.6978 109.88243 109.88243 106.6978 113.81097 106.6978 C 117.73952 106.6978 120.92415 109.88243 120.92415 113.81097 Z M 113.81097 113.81097  " stroke="none"/>
 </g>
 </g>
 </g>
 <path d=" M 113.81097 113.81097  " fill="none"/>
 <g transform="translate(110.8735,112.3943)">
 <g fill="#000">
 <text style="stroke:none" transform="scale(1,-1) translate(2.93747,0)" text-anchor="middle"  font-size="12"> 
<g fill="#000">
 <g stroke="none"> g </g> </g>
 </text> 
</g>
 </g>
 <path d=" M 113.81097 113.81097 M 120.92415 113.81097 C 120.92415 117.73952 117.73952 120.92415 113.81097 120.92415 C 109.88243 120.92415 106.6978 117.73952 106.6978 113.81097 C 106.6978 109.88243 109.88243 106.6978 113.81097 106.6978 C 117.73952 106.6978 120.92415 109.88243 120.92415 113.81097 Z M 113.81097 113.81097  " fill="none"/>
 <g stroke="#ccc" fill="#ccc">
 <g stroke-opacity="1">
 <g fill-opacity="1">
 <path d=" M 113.81097 28.45274 M 120.92415 28.45274 C 120.92415 32.38129 117.73952 35.56592 113.81097 35.56592 C 109.88243 35.56592 106.6978 32.38129 106.6978 28.45274 C 106.6978 24.5242 109.88243 21.33957 113.81097 21.33957 C 117.73952 21.33957 120.92415 24.5242 120.92415 28.45274 Z M 113.81097 28.45274  " stroke="none"/>
 </g>
 </g>
 </g>
 <path d=" M 113.81097 28.45274  " fill="none"/>
 <g transform="translate(110.54712,24.28609)">
 <g fill="#000">
 <text style="stroke:none" transform="scale(1,-1) translate(3.26385,0)" text-anchor="middle"  font-size="12"> 
<g fill="#000">
 <g stroke="none"> h</g> </g>
 </text> 
</g>
 </g>
 <path d=" M 113.81097 28.45274 M 120.92415 28.45274 C 120.92415 32.38129 117.73952 35.56592 113.81097 35.56592 C 109.88243 35.56592 106.6978 32.38129 106.6978 28.45274 C 106.6978 24.5242 109.88243 21.33957 113.81097 21.33957 C 117.73952 21.33957 120.92415 24.5242 120.92415 28.45274 Z M 113.81097 28.45274  " fill="none"/>
 <g stroke="#ccc" fill="#ccc">
 <g stroke-opacity="1">
 <g fill-opacity="1">
 <path d=" M 177.82964 7.11317 M 184.94281 7.11317 C 184.94281 11.04172 181.75818 14.22635 177.82964 14.22635 C 173.9011 14.22635 170.71646 11.04172 170.71646 7.11317 C 170.71646 3.18463 173.9011 0.0 177.82964 0.0 C 181.75818 0.0 184.94281 3.18463 184.94281 7.11317 Z M 177.82964 7.11317  " stroke="none"/>
 </g>
 </g>
 </g>
 <path d=" M 177.82964 7.11317  " fill="none"/>
 <g transform="translate(176.03452,4.29768)">
 <g fill="#000">
 <text style="stroke:none" transform="scale(1,-1) translate(1.79512,0)" text-anchor="middle"  font-size="12"> 
<g fill="#000">
 <g stroke="none"> j </g> </g>
 </text> 
</g>
 </g>
 <path d=" M 177.82964 7.11317 M 184.94281 7.11317 C 184.94281 11.04172 181.75818 14.22635 177.82964 14.22635 C 173.9011 14.22635 170.71646 11.04172 170.71646 7.11317 C 170.71646 3.18463 173.9011 0.0 177.82964 0.0 C 181.75818 0.0 184.94281 3.18463 184.94281 7.11317 Z M 177.82964 7.11317  " fill="none"/>
 <g stroke="#ccc" fill="#ccc">
 <g stroke-opacity="1">
 <g fill-opacity="1">
 <path d=" M 227.62195 7.11317 M 234.73512 7.11317 C 234.73512 11.04172 231.55049 14.22635 227.62195 14.22635 C 223.6934 14.22635 220.50877 11.04172 220.50877 7.11317 C 220.50877 3.18463 223.6934 0.0 227.62195 0.0 C 231.55049 0.0 234.73512 3.18463 234.73512 7.11317 Z M 227.62195 7.11317  " stroke="none"/>
 </g>
 </g>
 </g>
 <path d=" M 227.62195 7.11317  " fill="none"/>
 <g transform="translate(224.52129,2.94652)">
 <g fill="#000">
 <text style="stroke:none" transform="scale(1,-1) translate(3.10066,0)" text-anchor="middle"  font-size="12"> 
<g fill="#000">
 <g stroke="none"> k </g> </g>
 </text> 
</g>
 </g>
 <path d=" M 227.62195 7.11317 M 234.73512 7.11317 C 234.73512 11.04172 231.55049 14.22635 227.62195 14.22635 C 223.6934 14.22635 220.50877 11.04172 220.50877 7.11317 C 220.50877 3.18463 223.6934 0.0 227.62195 0.0 C 231.55049 0.0 234.73512 3.18463 234.73512 7.11317 Z M 227.62195 7.11317  " fill="none"/>
 <g stroke="#ccc" fill="#ccc">
 <g stroke-opacity="1">
 <g fill-opacity="1">
 <path d=" M 227.62195 135.15053 M 234.73512 135.15053 C 234.73512 139.07907 231.55049 142.2637 227.62195 142.2637 C 223.6934 142.2637 220.50877 139.07907 220.50877 135.15053 C 220.50877 131.22198 223.6934 128.03735 227.62195 128.03735 C 231.55049 128.03735 234.73512 131.22198 234.73512 135.15053 Z M 227.62195 135.15053  " stroke="none"/>
 </g>
 </g>
 </g>
 <path d=" M 227.62195 135.15053  " fill="none"/>
 <g transform="translate(225.99002,130.98387)">
 <g fill="#000">
 <text style="stroke:none" transform="scale(1,-1) translate(1.63193,0)" text-anchor="middle"  font-size="12"> 
<g fill="#000">
 <g stroke="none"> l </g> </g>
 </text> 
</g>
 </g>
 <path d=" M 227.62195 135.15053 M 234.73512 135.15053 C 234.73512 139.07907 231.55049 142.2637 227.62195 142.2637 C 223.6934 142.2637 220.50877 139.07907 220.50877 135.15053 C 220.50877 131.22198 223.6934 128.03735 227.62195 128.03735 C 231.55049 128.03735 234.73512 131.22198 234.73512 135.15053 Z M 227.62195 135.15053  " fill="none"/>
 <g stroke="#ccc" fill="#ccc">
 <g stroke-opacity="1">
 <g fill-opacity="1">
 <path d=" M 177.82964 113.81097 M 184.94281 113.81097 C 184.94281 117.73952 181.75818 120.92415 177.82964 120.92415 C 173.9011 120.92415 170.71646 117.73952 170.71646 113.81097 C 170.71646 109.88243 173.9011 106.6978 177.82964 106.6978 C 181.75818 106.6978 184.94281 109.88243 184.94281 113.81097 Z M 177.82964 113.81097  " stroke="none"/>
 </g>
 </g>
 </g>
 <path d=" M 177.82964 113.81097  " fill="none"/>
 <g transform="translate(174.56578,112.3943)">
 <g fill="#000">
 <text style="stroke:none" transform="scale(1,-1) translate(3.26385,0)" text-anchor="middle"  font-size="12"> 
<g fill="#000">
 <g stroke="none"> p</g> </g>
 </text> 
</g>
 </g>
 <path d=" M 177.82964 113.81097 M 184.94281 113.81097 C 184.94281 117.73952 181.75818 120.92415 177.82964 120.92415 C 173.9011 120.92415 170.71646 117.73952 170.71646 113.81097 C 170.71646 109.88243 173.9011 106.6978 177.82964 106.6978 C 181.75818 106.6978 184.94281 109.88243 184.94281 113.81097 Z M 177.82964 113.81097  " fill="none"/>
 <g stroke-width="0.8">
 <path d=" M 170.71646 71.13185 L 7.11317 71.13185  " fill="none"/>
 </g>
 <g stroke-width="0.8">
 <path d=" M 2.84523 76.82231 L 46.94707 129.46007  " fill="none"/>
 </g>
 <g stroke-width="0.8">
 <path d=" M 2.84523 65.44139 L 46.94707 12.80363  " fill="none"/>
 </g>
 <g stroke-width="0.8">
 <path d=" M 49.7923 14.22636 L 49.7923 128.03734  " fill="none"/>
 </g>
 <g stroke-width="0.8">
 <path d=" M 55.48276 133.7278 L 172.13918 115.23369  " fill="none"/>
 </g>
 <g stroke-width="0.8">
 <path d=" M 56.90549 7.11317 L 170.71646 7.11317  " fill="none"/>
 </g>
 <g stroke-width="0.8">
 <path d=" M 220.50876 7.11317 L 184.94283 7.11317  " fill="none"/>
 </g>
 <g stroke-width="0.8">
 <path d=" M 113.81097 35.56592 L 113.81097 106.69778  " fill="none"/>
 </g>
 <g stroke-width="0.8">
 <path d=" M 54.7716 132.3053 L 108.1205 116.6562  " fill="none"/>
 </g>
 <g stroke-width="0.8">
 <path d=" M 55.48276 9.9584 L 108.1205 24.18478  " fill="none"/>
 </g>
 <g stroke-width="0.8">
 <path d=" M 172.13918 9.9584 L 119.50143 24.18478  " fill="none"/>
 </g>
 <g stroke-width="0.8">
 <path d=" M 120.92415 113.81097 L 170.71646 113.81097  " fill="none"/>
 </g>
 <g stroke-width="0.8">
 <path d=" M 177.82964 106.69778 L 177.82964 78.24504  " fill="none"/>
 </g>
 <g stroke-width="0.8">
 <path d=" M 177.82964 64.01866 L 177.82964 14.22636  " fill="none"/>
 </g>
 <g stroke-width="0.8">
 <path d=" M 227.62195 14.22636 L 227.62195 128.03734  " fill="none"/>
 </g>
 <g stroke-width="0.8">
 <path d=" M 182.0976 118.07892 L 221.93147 132.3053  " fill="none"/>
 </g>
 <g stroke-width="0.8">
 <path d=" M 180.67487 76.82231 L 223.35399 130.88257  " fill="none"/>
 </g>
 <g stroke-width="0.8">
 <path d=" M 280.25948 76.82231 L 231.8899 130.88257  " fill="none"/>
 </g>
 <g stroke-width="0.8">
 <path d=" M 280.25948 65.44139 L 231.8899 11.38113  " fill="none"/>
 </g>
 </g>
 </g>
                                                                      </g> 
</svg> 
